<?xml version="1.0" encoding="UTF-8" standalone="no"?>
<!-- Created with Inkscape (http://www.inkscape.org/) -->

<svg
   width="50mm"
   height="49.441818mm"
   viewBox="0 0 50 49.441818"
   version="1.1"
   id="svg5"
   xml:space="preserve"
   xmlns:inkscape="http://www.inkscape.org/namespaces/inkscape"
   xmlns:sodipodi="http://sodipodi.sourceforge.net/DTD/sodipodi-0.dtd"
   xmlns="http://www.w3.org/2000/svg"
   xmlns:svg="http://www.w3.org/2000/svg"><sodipodi:namedview
     id="namedview7"
     pagecolor="#ffffff"
     bordercolor="#000000"
     borderopacity="0.25"
     inkscape:showpageshadow="2"
     inkscape:pageopacity="0.0"
     inkscape:pagecheckerboard="0"
     inkscape:deskcolor="#d1d1d1"
     inkscape:document-units="mm"
     showgrid="false" /><defs
     id="defs2" /><g
     inkscape:label="Layer 1"
     inkscape:groupmode="layer"
     id="layer1"
     transform="translate(3.7429779e-8,-1.0496201)"><path
       style="fill:#000000;stroke-width:0.155967"
       d="m 31.873042,50.379309 c -2.276437,-0.292651 -5.440057,-1.04339 -6.79899,-1.613439 l -0.560305,-0.235044 0.515484,-2.464643 c 0.283516,-1.355555 0.632306,-3.07877 0.77509,-3.829359 0.142776,-0.750589 0.316684,-1.364708 0.386449,-1.364708 0.06976,0 0.60479,0.16932 1.188924,0.376263 1.348969,0.477913 3.309783,1.01009 4.41536,1.19835 1.775525,0.302351 4.549452,0.435939 5.889781,0.28364 2.192356,-0.249111 2.844363,-0.761438 2.844363,-2.235002 0,-1.364389 -1.130238,-2.113413 -6.352184,-4.209663 -3.232519,-1.297631 -4.825877,-2.217266 -6.173926,-3.563395 -1.717228,-1.714771 -2.604332,-4.059319 -2.601582,-6.875719 8.84e-4,-1.322186 0.466559,-3.392582 0.998117,-4.441569 1.252995,-2.472654 3.692023,-4.234112 7.111068,-5.135567 2.23563,-0.589438 6.245724,-0.67404 9.352622,-0.197322 3.342702,0.512901 5.715298,1.167508 5.674986,1.565744 -0.05686,0.561869 -1.508915,6.948017 -1.603792,7.05354 -0.05827,0.06481 -0.688623,-0.05659 -1.400784,-0.269732 -4.120303,-1.233268 -8.307251,-1.356723 -9.930946,-0.292837 -0.53285,0.349135 -0.893824,1.239927 -0.796498,1.965537 0.162528,1.21175 1.032408,1.796795 5.076757,3.414443 7.919599,3.167644 9.712632,5.009884 10.086092,10.362846 0.203734,2.920123 -0.601085,5.28966 -2.409052,7.092729 -1.632635,1.628205 -3.785856,2.650223 -6.718942,3.189103 -1.710438,0.314253 -7.204105,0.452571 -8.968092,0.225804 z M 0.16617581,49.630904 c -0.163404,-0.104745 -0.191372,-3.625228 -0.147762,-18.597989 0.05279,-18.131209 0.05977,-18.495008 0.382806,-19.903942 C 1.6032218,5.8856989 4.4971098,2.8376269 9.5697818,1.4719059 c 1.4398662,-0.387657 1.7932812,-0.420091 4.6010202,-0.422239 2.552561,-0.0019 3.300701,0.05305 4.655098,0.342253 2.052508,0.438268 3.618942,0.951204 3.721564,1.218645 0.04395,0.1146 -0.06472,0.786779 -0.241595,1.493732 -0.176854,0.706953 -0.538774,2.197774 -0.804253,3.312936 -0.265487,1.115163 -0.54743,2.183938 -0.62655,2.375057 L 20.731229,10.139776 20.02234,9.8359109 c -0.98466,-0.422073 -3.208096,-0.818057 -4.603805,-0.819916 -2.995697,-0.004 -4.839016,1.1248621 -5.5391342,3.3921771 -0.132438,0.428908 -0.284507,1.533447 -0.337923,2.454531 l -0.09712,1.674697 5.7555032,0.04094 5.755494,0.04094 0.04165,3.938154 0.04165,3.938163 H 15.26613 9.4936058 l -0.03988,12.594325 -0.03988,12.594319 -4.52304,0.03793 c -2.487668,0.02087 -4.61374299,-0.02025 -4.72459799,-0.09127 z"
       id="path520" /></g></svg>
